<svg width="76" height="42" viewBox="0 0 76 42" fill="none" xmlns="http://www.w3.org/2000/svg">
<path d="M16.8997 41.6813H16.8931C15.3897 41.6615 13.8532 41.3634 12.3896 40.7144C7.93238 38.7871 5.27661 34.4425 5.27661 29.886C5.27661 28.3164 5.59451 26.7269 6.25679 25.197C8.19067 20.7531 12.5353 18.0973 17.0918 18.104C17.1315 18.104 17.1713 18.104 17.211 18.104C17.4097 17.2496 17.6945 16.3953 18.0521 15.5608C20.6284 9.62008 26.4168 6.07023 32.4966 6.07023C34.5828 6.07023 36.7087 6.49409 38.7485 7.37493C43.0004 9.22933 46.0204 12.7461 47.398 16.8191C48.557 16.4747 49.7822 16.2893 51.0074 16.2893C52.6963 16.2893 54.405 16.6271 56.0342 17.3423C59.9814 19.051 62.6107 22.528 63.4253 26.4355C64.1472 26.515 64.8889 26.6872 65.6042 26.9985H65.6108C68.4653 28.2502 70.1872 31.045 70.174 33.9789C70.1806 34.9856 69.9753 36.0188 69.5448 36.999C68.4123 39.5819 66.0479 41.4098 63.2995 41.6813L63.2266 41.7012L16.8997 41.6813ZM63.0942 38.6547C64.5843 38.4891 66.0678 37.3831 66.7632 35.787C67.0281 35.1909 67.1341 34.5816 67.1341 33.9789C67.1341 32.2173 66.1009 30.5351 64.3922 29.7867C63.8227 29.5483 63.2399 29.4423 62.6438 29.4423C62.5047 29.4423 62.359 29.4423 62.2398 29.4489L60.7364 29.5814L60.5973 28.0846C60.2728 24.6871 58.1601 21.581 54.8156 20.1239C53.5705 19.5809 52.279 19.3226 51.0074 19.3226C49.6233 19.3226 48.2457 19.6272 46.994 20.1968L45.272 20.9849L44.8813 19.1371C44.0402 15.2694 41.4374 11.852 37.5299 10.1565C35.8808 9.44789 34.1788 9.11012 32.4966 9.11012C27.589 9.11012 22.9199 11.9646 20.8469 16.7595C20.4032 17.7927 20.1184 18.8457 19.9529 19.9319L19.7343 21.4154L18.2508 21.2167C17.86 21.1637 17.4759 21.1372 17.0918 21.1372C13.7075 21.1372 10.4822 23.0976 9.05164 26.3958C8.55493 27.5415 8.32313 28.7204 8.32313 29.8794C8.32313 33.2703 10.2967 36.489 13.5949 37.9262C14.7274 38.4163 15.8931 38.6348 17.0521 38.6348H17.0653C17.0852 38.6348 17.105 38.6348 17.1315 38.6348L63.0942 38.6547Z" fill="#B8FFF9"/>
<path d="M15.0822 41.4388H15.075C13.4401 41.4172 11.7693 41.0931 10.1777 40.3873C5.33083 38.2916 2.44287 33.5672 2.44287 28.6123C2.44287 26.9054 2.78856 25.177 3.50875 23.5133C5.6117 18.6809 10.3361 15.7929 15.291 15.8001C15.3342 15.8001 15.3775 15.8001 15.4207 15.8001C15.6367 14.8711 15.9464 13.942 16.3353 13.0346C19.1368 6.5745 25.4313 2.71429 32.0426 2.71429C34.3112 2.71429 36.623 3.17521 38.8412 4.13306C43.4648 6.14958 46.7489 9.97378 48.2469 14.4029C49.5072 14.0284 50.8395 13.8268 52.1719 13.8268C54.0084 13.8268 55.8664 14.1941 57.6381 14.9719C61.9304 16.83 64.7896 20.611 65.6754 24.8601C66.4604 24.9465 67.267 25.1337 68.0448 25.4722H68.052C71.156 26.8334 73.0285 29.8726 73.0141 33.063C73.0213 34.1577 72.7981 35.2812 72.33 36.3471C71.0984 39.1558 68.5274 41.1435 65.5386 41.4388L65.4594 41.4604L15.0822 41.4388ZM65.3153 38.1476C66.9357 37.9675 68.549 36.7648 69.3052 35.0291C69.5932 34.381 69.7085 33.7184 69.7085 33.063C69.7085 31.1473 68.585 29.318 66.7269 28.5042C66.1075 28.245 65.4738 28.1297 64.8256 28.1297C64.6744 28.1297 64.5159 28.1297 64.3863 28.1369L62.7514 28.281L62.6002 26.6533C62.2473 22.9588 59.9499 19.5811 56.313 17.9967C54.959 17.4061 53.5546 17.1253 52.1719 17.1253C50.6667 17.1253 49.1687 17.4565 47.8075 18.0759L45.9351 18.9329L45.5101 16.9236C44.5955 12.7177 41.7652 9.00153 37.516 7.15785C35.7228 6.38725 33.8719 6.01995 32.0426 6.01995C26.706 6.01995 21.6287 9.12396 19.3745 14.3381C18.892 15.4616 18.5823 16.6067 18.4022 17.7878L18.1646 19.4011L16.5514 19.185C16.1265 19.1274 15.7087 19.0986 15.291 19.0986C11.6109 19.0986 8.10355 21.2303 6.54795 24.8169C6.0078 26.0628 5.75574 27.3447 5.75574 28.6051C5.75574 32.2924 7.9019 35.7925 11.4884 37.3553C12.72 37.8883 13.9875 38.1259 15.2478 38.1259H15.2622C15.2838 38.1259 15.3054 38.1259 15.3342 38.1259L65.3153 38.1476Z" fill="#42C2FF"/>
<path d="M13.6116 41.7033H13.6038C11.8432 41.6801 10.0439 41.3311 8.32981 40.571C3.11011 38.314 0 33.2262 0 27.8901C0 26.052 0.372282 24.1906 1.14787 22.399C3.41259 17.1948 8.50044 14.0847 13.8365 14.0924C13.883 14.0924 13.9296 14.0924 13.9761 14.0924C14.2088 13.0919 14.5423 12.0914 14.9611 11.1142C17.9781 4.15715 24.7568 0 31.8766 0C34.3197 0 36.8094 0.496376 39.1982 1.52791C44.1775 3.69955 47.7141 7.81792 49.3274 12.5878C50.6846 12.1845 52.1195 11.9673 53.5543 11.9673C55.5321 11.9673 57.5331 12.3629 59.441 13.2005C64.0635 15.2015 67.1426 19.2733 68.0966 23.8493C68.942 23.9424 69.8106 24.144 70.6483 24.5086H70.656C73.9988 25.9744 76.0153 29.2474 75.9998 32.6833C76.0076 33.8621 75.7671 35.0721 75.263 36.2199C73.9368 39.2447 71.1679 41.3853 67.9492 41.7033L67.8639 41.7266L13.6116 41.7033ZM67.7088 38.1589C69.4539 37.965 71.1912 36.6698 72.0055 34.8006C72.3158 34.1026 72.4399 33.389 72.4399 32.6833C72.4399 30.6202 71.2299 28.6502 69.2289 27.7738C68.5619 27.4946 67.8794 27.3705 67.1814 27.3705C67.0185 27.3705 66.8479 27.3705 66.7083 27.3782L64.9477 27.5334L64.7848 25.7805C64.4048 21.8018 61.9307 18.1643 58.0139 16.458C56.5558 15.822 55.0434 15.5195 53.5543 15.5195C51.9333 15.5195 50.3201 15.8763 48.8543 16.5433L46.8377 17.4662L46.3801 15.3023C45.3951 10.7729 42.3471 6.77088 37.7711 4.78538C35.8399 3.9555 33.8466 3.55995 31.8766 3.55995C26.1295 3.55995 20.6617 6.90273 18.2341 12.518C17.7144 13.7279 17.3809 14.9611 17.187 16.233L16.9311 17.9704L15.1938 17.7377C14.7362 17.6756 14.2863 17.6446 13.8365 17.6446C9.87323 17.6446 6.09612 19.9404 4.42085 23.8028C3.83916 25.1445 3.5677 26.5251 3.5677 27.8824C3.5677 31.8534 5.87895 35.6227 9.74138 37.3058C11.0676 37.8797 12.4327 38.1356 13.7899 38.1356H13.8055C13.8287 38.1356 13.852 38.1356 13.883 38.1356L67.7088 38.1589Z" fill="#008CCF"/>
</svg>
