<svg width="35" height="35" viewBox="0 0 35 35" fill="none" xmlns="http://www.w3.org/2000/svg">
<path d="M15.1667 3.5C8.73716 3.5 3.5 8.73716 3.5 15.1667C3.5 21.5962 8.73716 26.8333 15.1667 26.8333C17.9626 26.8333 20.5303 25.8405 22.5426 24.1924L29.5085 31.1582C29.616 31.2702 29.7447 31.3596 29.8872 31.4211C30.0297 31.4827 30.183 31.5153 30.3382 31.5168C30.4935 31.5184 30.6474 31.489 30.7911 31.4303C30.9348 31.3717 31.0654 31.2849 31.1752 31.1752C31.2849 31.0654 31.3717 30.9348 31.4303 30.7911C31.489 30.6474 31.5184 30.4935 31.5168 30.3382C31.5153 30.183 31.4827 30.0297 31.4211 29.8872C31.3596 29.7447 31.2702 29.616 31.1582 29.5085L24.1924 22.5426C25.8405 20.5303 26.8333 17.9626 26.8333 15.1667C26.8333 8.73716 21.5962 3.5 15.1667 3.5ZM15.1667 5.83333C20.3351 5.83333 24.5 9.99819 24.5 15.1667C24.5 20.3351 20.3351 24.5 15.1667 24.5C9.99819 24.5 5.83333 20.3351 5.83333 15.1667C5.83333 9.99819 9.99819 5.83333 15.1667 5.83333Z" fill="#00A7F5"/>
</svg>
