<svg width="80" height="80" viewBox="0 0 80 80" fill="none" xmlns="http://www.w3.org/2000/svg">
<path d="M55 43.75C55 46.4695 54.1936 49.1279 52.6827 51.3891C51.1718 53.6503 49.0244 55.4126 46.5119 56.4533C43.9994 57.494 41.2347 57.7663 38.5675 57.2358C35.9003 56.7053 33.4503 55.3957 31.5273 53.4727C29.6043 51.5497 28.2948 49.0997 27.7642 46.4325C27.2337 43.7653 27.506 41.0006 28.5467 38.4881C29.5874 35.9756 31.3497 33.8282 33.6109 32.3173C35.8721 30.8064 38.5305 30 41.25 30C43.0557 30 44.8437 30.3557 46.5119 31.0467C48.1801 31.7377 49.6959 32.7505 50.9727 34.0273C52.2495 35.3041 53.2623 36.8199 53.9533 38.4881C54.6443 40.1563 55 41.9443 55 43.75ZM77.5 22.5V65C77.5 66.9891 76.7098 68.8968 75.3033 70.3033C73.8968 71.7098 71.9891 72.5 70 72.5H10C8.01088 72.5 6.10322 71.7098 4.6967 70.3033C3.29018 68.8968 2.5 66.9891 2.5 65V22.5C2.5 20.5109 3.29018 18.6032 4.6967 17.1967C6.10322 15.7902 8.01088 15 10 15H70C71.9891 15 73.8968 15.7902 75.3033 17.1967C76.7098 18.6032 77.5 20.5109 77.5 22.5ZM20 27.5C20 26.5111 19.7068 25.5444 19.1573 24.7221C18.6079 23.8999 17.827 23.259 16.9134 22.8806C15.9998 22.5022 14.9945 22.4031 14.0245 22.5961C13.0546 22.789 12.1637 23.2652 11.4645 23.9645C10.7652 24.6637 10.289 25.5546 10.0961 26.5245C9.90315 27.4945 10.0022 28.4998 10.3806 29.4134C10.759 30.327 11.3999 31.1079 12.2221 31.6573C13.0444 32.2068 14.0111 32.5 15 32.5C16.3261 32.5 17.5979 31.9732 18.5355 31.0355C19.4732 30.0979 20 28.8261 20 27.5ZM60 43.75C60 40.0416 58.9003 36.4165 56.8401 33.3331C54.7798 30.2496 51.8514 27.8464 48.4253 26.4273C44.9992 25.0081 41.2292 24.6368 37.5921 25.3603C33.9549 26.0837 30.614 27.8695 27.9917 30.4917C25.3695 33.114 23.5837 36.4549 22.8603 40.0921C22.1368 43.7292 22.5081 47.4992 23.9273 50.9253C25.3464 54.3514 27.7496 57.2798 30.8331 59.3401C33.9165 61.4003 37.5416 62.5 41.25 62.5C46.2228 62.5 50.9919 60.5246 54.5083 57.0083C58.0246 53.4919 60 48.7228 60 43.75ZM53.75 10C53.75 9.33696 53.4866 8.70107 53.0178 8.23223C52.5489 7.76339 51.913 7.5 51.25 7.5H28.75C28.087 7.5 27.4511 7.76339 26.9822 8.23223C26.5134 8.70107 26.25 9.33696 26.25 10C26.25 10.663 26.5134 11.2989 26.9822 11.7678C27.4511 12.2366 28.087 12.5 28.75 12.5H51.25C51.913 12.5 52.5489 12.2366 53.0178 11.7678C53.4866 11.2989 53.75 10.663 53.75 10Z" fill="#00A7F5"/>
</svg>
