<svg width="80" height="80" viewBox="0 0 80 80" fill="none" xmlns="http://www.w3.org/2000/svg">
<path d="M76.25 55V68.75H1.25V18.75H76.25V32.5" stroke="#00A7F5" stroke-width="2" stroke-miterlimit="10"/>
<path d="M7.5 11.25H67.5V18.75" stroke="#00A7F5" stroke-width="2" stroke-miterlimit="10"/>
<path d="M7.5 11.25C4.0475 11.25 1.25 14.0488 1.25 17.5" stroke="#00A7F5" stroke-width="2" stroke-miterlimit="10"/>
<path d="M53.9062 32.5C47.6912 32.5 42.6562 37.5362 42.6562 43.75C42.6562 49.9625 47.6912 55 53.9062 55H78.75V32.5H53.9062Z" stroke="#00A7F5" stroke-width="2" stroke-miterlimit="10"/>
<path d="M55 47.5C57.0711 47.5 58.75 45.8211 58.75 43.75C58.75 41.6789 57.0711 40 55 40C52.9289 40 51.25 41.6789 51.25 43.75C51.25 45.8211 52.9289 47.5 55 47.5Z" stroke="#00A7F5" stroke-width="2" stroke-miterlimit="10"/>
</svg>
