<svg width="80" height="80" viewBox="0 0 80 80" fill="none" xmlns="http://www.w3.org/2000/svg">
<path d="M40.0002 73.3333C19.0968 73.3333 3.3335 59 3.3335 40C3.3335 21 19.0968 6.66666 40.0002 6.66666C40.6318 6.66666 41.2468 6.68499 41.8768 6.71999C43.4352 6.79176 44.9177 7.41289 46.0618 8.47332C46.6985 9.06654 47.2092 9.78189 47.5635 10.5767C47.9177 11.3715 48.1083 12.2296 48.1238 13.0996C48.1393 13.9697 47.9797 14.834 47.654 15.6409C47.3283 16.4479 46.8435 17.181 46.2285 17.7967L41.8952 22.13C40.9978 23.0283 40.387 24.1723 40.1397 25.4177C39.8925 26.663 40.0198 27.9537 40.506 29.1267C40.992 30.2997 41.8148 31.3022 42.8705 32.0075C43.9262 32.713 45.1672 33.0897 46.4368 33.09C46.5902 33.09 46.7435 33.09 46.8968 33.0733L65.8685 31.7217C66.0502 31.7083 66.2485 31.7017 66.4452 31.7017C66.83 31.7018 67.2143 31.7297 67.5952 31.785L69.7018 32.085C71.6108 32.348 73.3627 33.2855 74.6402 34.7282C75.9178 36.1708 76.6367 38.0232 76.6668 39.95C76.681 45.1143 75.4437 50.2053 73.0607 54.787C70.6777 59.3687 67.22 63.3048 62.9835 66.2583C62.93 66.2963 62.8743 66.3315 62.8168 66.3633L55.5835 70.3133C55.5293 70.3425 55.4738 70.3685 55.4168 70.3917C50.518 72.365 45.2815 73.3642 40.0002 73.3333Z" fill="#00A7F5"/>
<path d="M69.7018 32.0833L67.5952 31.7833C67.2143 31.728 66.83 31.7002 66.4452 31.7C66.2485 31.7 66.0502 31.7 65.8685 31.72L64.7018 31.8033C59.8857 41.05 52.8038 48.9248 44.118 54.6915C35.4323 60.4582 25.4263 63.9285 15.0352 64.7783C22.102 70.4587 30.9347 73.4855 40.0002 73.3333C45.2803 73.3638 50.5157 72.3647 55.4135 70.3917C55.4705 70.3685 55.526 70.3423 55.5802 70.3133L62.8135 66.3633C62.871 66.3315 62.9267 66.2963 62.9802 66.2583C67.2172 63.3052 70.6757 59.3692 73.0592 54.7875C75.4428 50.2058 76.6807 45.1147 76.6668 39.95C76.637 38.0228 75.9183 36.1702 74.6407 34.7272C73.3632 33.2842 71.6112 32.3463 69.7018 32.0833Z" fill="#00A7F5"/>
<path d="M18.3333 40C21.555 40 24.1667 37.3883 24.1667 34.1667C24.1667 30.945 21.555 28.3333 18.3333 28.3333C15.1117 28.3333 12.5 30.945 12.5 34.1667C12.5 37.3883 15.1117 40 18.3333 40Z" fill="white"/>
<path d="M22.4998 56.6667C25.7215 56.6667 28.3332 54.055 28.3332 50.8333C28.3332 47.6117 25.7215 45 22.4998 45C19.2782 45 16.6665 47.6117 16.6665 50.8333C16.6665 54.055 19.2782 56.6667 22.4998 56.6667Z" fill="white"/>
<path d="M39.9998 65C43.2215 65 45.8332 62.3883 45.8332 59.1667C45.8332 55.945 43.2215 53.3333 39.9998 53.3333C36.7782 53.3333 34.1665 55.945 34.1665 59.1667C34.1665 62.3883 36.7782 65 39.9998 65Z" fill="white"/>
<path d="M40.0001 65C41.1816 65.0038 42.3364 64.6475 43.3102 63.9787C44.2842 63.3097 45.0312 62.3598 45.4517 61.2555C45.8722 60.1513 45.9464 58.9452 45.6641 57.7978C45.3817 56.6505 44.7566 55.6163 43.8717 54.8333C40.8264 56.847 37.6076 58.585 34.2534 60.0267C34.4561 61.4068 35.1478 62.6683 36.2026 63.5812C37.2574 64.494 38.6051 64.9977 40.0001 65Z" fill="white"/>
<path d="M58.3333 76.6667C57.408 76.6668 56.5187 76.3073 55.8533 75.6643C55.1878 75.0213 54.7982 74.1448 54.7667 73.22L53.3333 31.8333C53.311 31.1628 53.4238 30.4947 53.665 29.8687C53.9063 29.2427 54.271 28.6717 54.7375 28.1895C55.204 27.7075 55.7628 27.3242 56.3807 27.0625C56.9983 26.801 57.6625 26.6663 58.3333 26.6667C59.0042 26.6663 59.6683 26.801 60.286 27.0625C60.9038 27.3242 61.4627 27.7075 61.9292 28.1895C62.3957 28.6717 62.7605 29.2427 63.0017 29.8687C63.2428 30.4947 63.3557 31.1628 63.3333 31.8333L61.9067 73.2167C61.876 74.1433 61.4858 75.0215 60.8188 75.6655C60.1518 76.3093 59.2605 76.6685 58.3333 76.6667Z" fill="#0091D4"/>
<path d="M58.3332 26.6667C57.764 26.6727 57.2002 26.7768 56.6665 26.975C57.6665 27.325 58.529 27.9848 59.1283 28.8585C59.7278 29.7322 60.0332 30.7743 59.9998 31.8333L58.5715 73.2167C58.5483 73.8433 58.36 74.4527 58.0255 74.983C57.6908 75.5133 57.222 75.9458 56.6665 76.2367C57.199 76.5258 57.7967 76.6738 58.4027 76.6661C59.0085 76.6585 59.6023 76.4955 60.1273 76.1928C60.6523 75.8903 61.091 75.458 61.4013 74.9375C61.7117 74.4172 61.8833 73.8256 61.8998 73.22L63.3332 31.8333C63.3555 31.1628 63.2427 30.4947 63.0015 29.8687C62.7602 29.2427 62.3955 28.6717 61.929 28.1895C61.4625 27.7075 60.9037 27.3242 60.2858 27.0625C59.6682 26.801 59.004 26.6663 58.3332 26.6667Z" fill="#0082BE"/>
<path d="M56.6665 3.33334C56.6665 8.33334 51.6665 11.6667 51.6665 18.3333C51.6665 20.1015 52.3688 21.7972 53.6192 23.0473C54.8693 24.2977 56.565 25 58.3332 25C60.1013 25 61.797 24.2977 63.0472 23.0473C64.2975 21.7972 64.9998 20.1015 64.9998 18.3333C64.9998 10 56.6665 3.33334 56.6665 3.33334Z" fill="#0091D5"/>
<path d="M52.2949 21.1217C52.9293 22.5018 54.0166 23.6235 55.3764 24.3005C56.7361 24.9775 58.2866 25.1692 59.7703 24.8435C61.2539 24.5178 62.5816 23.6947 63.5329 22.5105C64.4841 21.3263 65.0018 19.8523 64.9999 18.3333C64.9841 16.723 64.6926 15.1271 64.1383 13.615C62.7651 15.5934 61.0098 17.2767 58.9758 18.566C56.9416 19.8552 54.6701 20.7242 52.2949 21.1217Z" fill="#0082BE"/>
</svg>
