<svg width="80" height="80" viewBox="0 0 80 80" fill="none" xmlns="http://www.w3.org/2000/svg">
<path d="M40 71.52C39.68 71.52 39.52 71.52 39.2 71.36L25.44 63.52C24.64 63.04 24.48 62.08 24.8 61.28C25.12 60.48 26.24 60.32 27.04 60.64L40 68.16L51.68 61.44C52.48 60.96 53.44 61.28 53.92 62.08C54.4 62.88 54.08 63.84 53.28 64.32L40.8 71.52C40.48 71.52 40.32 71.52 40 71.52Z" fill="#00A7F5"/>
<path d="M17.9203 49.28C16.9603 49.28 16.3203 48.64 16.3203 47.68V31.84C16.3203 31.2 16.6403 30.72 17.1203 30.4L30.7203 22.56C31.5203 22.08 32.4803 22.4 32.9603 23.2C33.4403 24 33.1203 24.96 32.3203 25.44L19.5203 32.8V47.68C19.5203 48.48 18.8803 49.28 17.9203 49.28Z" fill="#00A7F5"/>
<path d="M62.0803 48.48C61.1203 48.48 60.4803 47.84 60.4803 46.88V32.8L47.6803 25.44C46.8803 24.96 46.7203 24 47.0403 23.2C47.5203 22.4 48.4803 22.24 49.2803 22.56L62.8803 30.4C63.3603 30.72 63.6803 31.2 63.6803 31.84V46.88C63.6803 47.68 62.8803 48.48 62.0803 48.48Z" fill="#00A7F5"/>
<path d="M40.0003 30.56C33.7603 30.56 28.8003 25.6 28.8003 19.36C28.8003 13.12 33.7603 8.15997 40.0003 8.15997C46.2403 8.15997 51.2003 13.12 51.2003 19.36C51.2003 25.6 46.0803 30.56 40.0003 30.56ZM40.0003 11.36C35.5203 11.36 32.0003 14.88 32.0003 19.36C32.0003 23.84 35.5203 27.36 40.0003 27.36C44.4803 27.36 48.0003 23.84 48.0003 19.36C48.0003 14.88 44.3203 11.36 40.0003 11.36Z" fill="#00A7F5"/>
<path d="M17.9202 68.48C11.6802 68.48 6.72021 63.52 6.72021 57.28C6.72021 51.04 11.6802 46.08 17.9202 46.08C24.1602 46.08 29.1202 51.04 29.1202 57.28C29.1202 63.36 24.1602 68.48 17.9202 68.48ZM17.9202 49.28C13.4402 49.28 9.92022 52.8 9.92022 57.28C9.92022 61.76 13.4402 65.28 17.9202 65.28C22.4002 65.28 25.9202 61.76 25.9202 57.28C25.9202 52.8 22.4002 49.28 17.9202 49.28Z" fill="#00A7F5"/>
<path d="M62.0804 68.48C55.8404 68.48 50.8804 63.52 50.8804 57.28C50.8804 51.04 55.8404 46.08 62.0804 46.08C68.3204 46.08 73.2804 51.04 73.2804 57.28C73.2804 63.36 68.1604 68.48 62.0804 68.48ZM62.0804 49.28C57.6004 49.28 54.0804 52.8 54.0804 57.28C54.0804 61.76 57.6004 65.28 62.0804 65.28C66.5604 65.28 70.0804 61.76 70.0804 57.28C70.0804 52.8 66.4004 49.28 62.0804 49.28Z" fill="#00A7F5"/>
</svg>
